<svg width="24" height="24" viewBox="0 0 24 24" fill="none" xmlns="http://www.w3.org/2000/svg"><path fill-rule="evenodd" clip-rule="evenodd" d="M3.933 3C2.821 3 2 3.85 2 4.8v8.4c0 .95.821 1.8 1.933 1.8a1 1 0 1 1 0 2C1.805 17 0 15.342 0 13.2V4.8C0 2.658 1.805 1 3.933 1h16.134C22.195 1 24 2.658 24 4.8v8.398m0 .002a3.72 3.72 0 0 1-.998 2.53 1 1 0 0 1-1.468-1.357A1.72 1.72 0 0 0 22 13.202V4.8c0-.95-.821-1.8-1.933-1.8H3.933" fill="#0E1939"></path><path fill-rule="evenodd" clip-rule="evenodd" d="M10.95 22.997l-3.658-5.058a1.558 1.558 0 0 1-.048-1.744c.222-.345.572-.58.966-.65.395-.07.8.03 1.12.28l1.615 1.259V7.478c0-.393.151-.77.42-1.047A1.4 1.4 0 0 1 12.374 6c.788 0 1.426.662 1.426 1.478v5.913l3.966.915c1.4.322 2.35 1.673 2.221 3.153L19.503 23l-8.553-.003z" fill="#0E1939"></path></svg>